<?xml version="1.0" encoding="UTF-8" standalone="no"?>
<svg
   width="99.265747"
   height="36.643341"
   version="1.1"
   viewBox="0 0 79.4126 29.31542"
   id="svg26"
   sodipodi:docname="IDB FMD Logo.svg"
   inkscape:version="1.1 (c68e22c387, 2021-05-23)"
   xmlns:inkscape="http://www.inkscape.org/namespaces/inkscape"
   xmlns:sodipodi="http://sodipodi.sourceforge.net/DTD/sodipodi-0.dtd"
   xmlns="http://www.w3.org/2000/svg"
   xmlns:svg="http://www.w3.org/2000/svg"
   xmlns:rdf="http://www.w3.org/1999/02/22-rdf-syntax-ns#"
   xmlns:cc="http://creativecommons.org/ns#"
   xmlns:dc="http://purl.org/dc/elements/1.1/">
  <defs
     id="defs30" />
  <sodipodi:namedview
     id="namedview28"
     pagecolor="#ffffff"
     bordercolor="#666666"
     borderopacity="1.0"
     inkscape:pageshadow="2"
     inkscape:pageopacity="0.0"
     inkscape:pagecheckerboard="0"
     showgrid="false"
     fit-margin-top="0"
     fit-margin-left="0"
     fit-margin-right="0"
     fit-margin-bottom="0"
     inkscape:zoom="6.3052584"
     inkscape:cx="53.923246"
     inkscape:cy="18.318044"
     inkscape:window-width="1920"
     inkscape:window-height="1001"
     inkscape:window-x="-9"
     inkscape:window-y="-9"
     inkscape:window-maximized="1"
     inkscape:current-layer="g12" />
  <title
     id="title2">Inter-American Development Bank logo</title>
  <metadata
     id="metadata4">
    <rdf:RDF>
      <cc:Work
         rdf:about="">
        <dc:format>image/svg+xml</dc:format>
        <dc:type
           rdf:resource="http://purl.org/dc/dcmitype/StillImage" />
        <dc:title>Inter-American Development Bank logo</dc:title>
        <cc:license
           rdf:resource="http://scripts.sil.org/OFL" />
        <dc:date>26 mayo 2020</dc:date>
        <dc:creator>
          <cc:Agent>
            <dc:title>EEIM</dc:title>
          </cc:Agent>
        </dc:creator>
        <dc:rights>
          <cc:Agent>
            <dc:title>N/A</dc:title>
          </cc:Agent>
        </dc:rights>
      </cc:Work>
      <cc:License
         rdf:about="http://scripts.sil.org/OFL">
        <cc:permits
           rdf:resource="http://scripts.sil.org/pub/OFL/Reproduction" />
        <cc:permits
           rdf:resource="http://scripts.sil.org/pub/OFL/Distribution" />
        <cc:permits
           rdf:resource="http://scripts.sil.org/pub/OFL/Embedding" />
        <cc:permits
           rdf:resource="http://scripts.sil.org/pub/OFL/DerivativeWorks" />
        <cc:requires
           rdf:resource="http://scripts.sil.org/pub/OFL/Notice" />
        <cc:requires
           rdf:resource="http://scripts.sil.org/pub/OFL/Attribution" />
        <cc:requires
           rdf:resource="http://scripts.sil.org/pub/OFL/ShareAlike" />
        <cc:requires
           rdf:resource="http://scripts.sil.org/pub/OFL/DerivativeRenaming" />
        <cc:requires
           rdf:resource="http://scripts.sil.org/pub/OFL/BundlingWhenSelling" />
      </cc:License>
    </rdf:RDF>
  </metadata>
  <g
     transform="translate(-0.32313088,1.1344941)"
     fill="#808080"
     id="g24">
    <g
       transform="matrix(0.3352,0,0,-0.32505,0.32174,28.181)"
       id="g12">
      <g
         transform="scale(0.1)"
         fill="#808080"
         id="g10"
         style="fill:#ffffff">
        <path
           transform="matrix(3.6337,0,0,-3.747,-96.043,924.3)"
           d="m 229.27,5.9844 c -46.244,20.167 -122.6,46.053 -102.11,82.17 25.14,43.643 170.71,24.381 121.67,82.166 -32.901,38.828 -48.105,57.793 -55.248,71.035 62.076,-17.759 103.04,-79.159 93.113,-145.07 -5.588,-38.224 -27.315,-70.428 -57.422,-90.297 z m -180.01,35.52 c -18.001,26.183 -26.382,58.992 -21.414,93.004 10.55,71.629 76.972,121.29 148.36,110.76 0.92992,-0.2971 1.86,-0.5996 2.793,-0.5996 30.725,-62.607 -35.383,-63.204 -14.898,-96.613 19.242,-31.001 -117.94,-31.002 -114.84,-106.55 z m 277.71,1.0488 v 161.02 h 39.107 v -141.46 c 0,-10.838 -8.6932,-19.562 -19.553,-19.562 z m 213.97,0.2832 v 160.72 h 76.658 c 38.487,0 60.836,-16.554 60.836,-45.146 v -0.30859 c -0.31374,-18.358 -8.3824,-30.395 -26.697,-38.82 11.798,-8.1291 17.695,-18.963 17.695,-33.109 v -0.60352 c 0,-11.437 -3.7283,-20.465 -11.486,-28.289 -9.6184,-9.6327 -24.204,-14.447 -42.516,-14.447 z M 381.3,42.94773 v 160.72 h 63.002 c 23.902,0 45.938,-8.1283 61.457,-23.178 15.211,-14.743 23.893,-34.911 23.893,-57.182 v -0.60156 c 0.31924,-46.353 -35.688,-79.76 -85.035,-79.76 z m -221.41,30.76 c 17.957,-0.46886 35.74,17.666 16.621,17.156 -22.345,-0.90178 -31.345,-12.04 -26.383,-14.746 3.1041,-1.5994 6.4363,-2.3233 9.7617,-2.4102 z m 419.23,4.3418 h 31.346 c 9.0047,0 20.172,2.4102 20.172,13.543 v 0.30273 c 0,9.3292 -7.4461,14.146 -22.346,14.146 H 579.12 Z m -158.4,0.71289 h 23.9 c 26.692,0 44.383,17.759 44.383,44.547 v 0.29883 c 0,26.484 -17.999,44.246 -44.383,44.246 h -23.9 z m -226.88,8.4238 c 1.3857,0.04112 3.329,0.4232 5.9473,1.2695 12.107,3.9127 10.247,9.6327 2.1758,9.0293 -6.8092,-0.76087 -15.606,-10.521 -8.123,-10.299 z m 22.65,14.5 c 0.31167,-0.008 0.64105,-0.003 0.99024,0.0156 5.5869,0 13.657,7.2217 1.8633,4.8144 -7.8562,-1.6946 -7.5285,-4.7095 -2.8535,-4.8301 z m 362.63,37.764 h 37.246 c 15.202,0 22.963,4.8146 22.963,14.447 v 0.30274 c -0.31098,9.9276 -7.4466,14.748 -22.035,14.748 H 579.12 Z"
           id="path6"
           style="fill:#ffffff" />
        <path
           d="M 501.36,370.69 C 425.798,245.49 667.15,243.23 555.489,8.65 552.11,7.525 548.732,7.525 545.341,6.3922 c -260.52,-39.461 -501.87,146.63 -540.2,415.04 -18.051,127.43 13.535,250.36 77.809,348.47 -11.285,-283.07 488.34,-283.07 418.41,-399.22 m 106,-350.76 c 25.954,49.617 81.204,121.8 200.75,266.17 179.32,216.52 -350.75,144.34 -442.1,307.88 -74.438,135.33 204.13,232.33 372.18,307.9 109.4,-74.449 188.34,-195.12 208.64,-339.47 36.094,-244.73 -113.91,-475.93 -339.47,-542.47 m -156.76,620.29 c -18.047,-10.145 13.539,-53.008 95.867,-55.27 81.203,-2.254 -23.692,94.742 -95.867,55.27 m 180.45,-46.239 c -60.906,20.301 -21.434,-30.449 7.894,-33.839 29.325,-2.246 34.957,19.175 -7.894,33.839 m 63.152,-49.621 c -20.301,1.129 -23.68,-11.285 6.77,-18.05 42.855,-9.02 13.531,18.05 -6.77,18.05"
           id="path8"
           style="fill:#ffffff" />
      </g>
    </g>
  </g>
</svg>
